<?xml version="1.0" encoding="utf-8"?>
<!-- Generator: Adobe Illustrator 26.0.3, SVG Export Plug-In . SVG Version: 6.00 Build 0)  -->
<svg version="1.1" id="Layer_1" xmlns="http://www.w3.org/2000/svg" xmlns:xlink="http://www.w3.org/1999/xlink" x="0px" y="0px"
	 viewBox="0 0 331.8 144.32" style="enable-background:new 0 0 331.8 144.32;" xml:space="preserve">
<style type="text/css">
	.st0{fill:#FFFFFF;}
	.st1{fill:url(#SVGID_1_);}
	.st2{fill:url(#SVGID_00000024717817325264510610000011023657659126119864_);}
	.st3{fill:#886B25;}
	.st4{fill:url(#SVGID_00000154420026813267526560000005940026619401536936_);}
	.st5{fill:#007D8A;}
	.st6{fill:#007041;}
</style>
<g>
	<path class="st0" d="M130.83,112.68c0,1.23,0.66,1.41,2.1,1.81c1.67,0.46,2.69,1.12,2.69,2.87c0,2.05-1.26,2.8-3.51,2.8
		c-1.05,0-1.82-0.09-2.6-0.25l0.13-1.1c0.75,0.11,1.69,0.19,2.42,0.19c1.26,0,2.14-0.28,2.14-1.6c0-1.15-0.85-1.42-1.99-1.77
		c-1.74-0.52-2.76-1-2.76-2.78c0-2.01,1.21-2.66,3.38-2.66c0.93,0,1.88,0.11,2.57,0.25l-0.13,1.07c-0.6-0.09-1.32-0.18-2.01-0.18
		C132.14,111.34,130.83,111.45,130.83,112.68z"/>
	<path class="st0" d="M137.56,110.3h1.37v9.75h-1.37V110.3z"/>
	<path class="st0" d="M142.21,112.68c0,1.23,0.66,1.41,2.1,1.81c1.67,0.46,2.69,1.12,2.69,2.87c0,2.05-1.26,2.8-3.51,2.8
		c-1.05,0-1.82-0.09-2.6-0.25l0.13-1.1c0.75,0.11,1.69,0.19,2.42,0.19c1.26,0,2.14-0.28,2.14-1.6c0-1.15-0.85-1.42-1.99-1.77
		c-1.74-0.52-2.76-1-2.76-2.78c0-2.01,1.21-2.66,3.38-2.66c0.93,0,1.88,0.11,2.57,0.25l-0.13,1.07c-0.6-0.09-1.32-0.18-2.01-0.18
		C143.52,111.34,142.21,111.45,142.21,112.68z"/>
	<path class="st0" d="M154.94,111.4h-2.58v8.65H151v-8.65h-2.58v-1.1h6.53V111.4z"/>
	<path class="st0" d="M162.35,111.39h-2.52c-1.59,0-1.86,0.3-1.86,1.7v1.46h4.19v1.08h-4.19v1.64c0,1.4,0.27,1.7,1.86,1.7h2.52v1.05
		c-0.75,0.03-1.76,0.06-2.48,0.06c-1.69,0-3.26-0.09-3.26-2.22v-5.35c0-2.13,1.57-2.23,3.26-2.23c0.65,0,1.72,0.03,2.48,0.06V111.39
		z"/>
	<path class="st0" d="M169.21,117.03l2.59-5.96c0.25-0.58,0.62-0.86,1.03-0.86c0.59,0,0.86,0.3,0.89,0.97l0.46,8.89h-1.33
		l-0.39-7.85l-2.47,5.92c-0.17,0.41-0.41,0.62-0.77,0.62c-0.37,0-0.62-0.21-0.79-0.62l-2.48-5.9l-0.4,7.84h-1.27l0.48-8.89
		c0.03-0.67,0.3-0.96,0.89-0.96c0.4,0,0.77,0.26,1.02,0.84L169.21,117.03z"/>
	<path class="st0" d="M175.9,120.05l3.18-8.92c0.23-0.64,0.61-0.93,1.14-0.93c0.52,0,0.91,0.3,1.13,0.93l3.13,8.92h-1.45l-0.92-2.7
		h-3.9l-0.91,2.7H175.9z M181.76,116.29l-1.6-4.7l-1.59,4.7H181.76z"/>
	<path class="st0" d="M189.99,110.44c0.84-0.14,1.95-0.23,3.03-0.23c3.62,0,4.25,1.66,4.25,4.98c0,3.31-0.64,4.97-4.25,4.97
		c-1.08,0-2.2-0.1-3.03-0.24V110.44z M191.35,111.42v7.51c0.41,0.05,0.92,0.11,1.39,0.11c3.15,0,3.17-1.67,3.17-3.86
		c0-2.19-0.02-3.86-3.17-3.86C192.27,111.32,191.76,111.37,191.35,111.42z"/>
	<path class="st0" d="M205.17,111.39h-2.52c-1.59,0-1.86,0.3-1.86,1.7v1.46h4.19v1.08h-4.19v1.64c0,1.4,0.27,1.7,1.86,1.7h2.52v1.05
		c-0.74,0.03-1.76,0.06-2.48,0.06c-1.69,0-3.26-0.09-3.26-2.22v-5.35c0-2.13,1.57-2.23,3.26-2.23c0.65,0,1.72,0.03,2.48,0.06V111.39
		z"/>
	<path class="st0" d="M217.14,119.91c-0.62,0.14-1.42,0.24-2.33,0.24c-3.18,0-3.95-1.51-3.95-4.97c0-3.47,0.78-4.98,3.95-4.98
		c0.9,0,1.7,0.1,2.33,0.24l-0.13,1.06c-0.57-0.09-1.19-0.16-1.8-0.16c-2.82,0-2.96,1.47-2.96,3.83c0,2.37,0.17,3.83,2.96,3.83
		c0.62,0,1.23-0.06,1.81-0.15L217.14,119.91z"/>
	<path class="st0" d="M218.5,115.18c0-3.53,0.85-4.98,3.82-4.98s3.81,1.44,3.81,4.98c0,3.53-0.84,4.97-3.81,4.97
		S218.5,118.71,218.5,115.18z M224.75,115.18c0-2.27-0.08-3.85-2.43-3.85c-2.35,0-2.43,1.58-2.43,3.85c0,2.26,0.07,3.85,2.43,3.85
		C224.66,119.03,224.75,117.44,224.75,115.18z"/>
	<path class="st0" d="M228.09,115.18c0-3.53,0.85-4.98,3.82-4.98c2.97,0,3.81,1.44,3.81,4.98c0,3.53-0.84,4.97-3.81,4.97
		C228.94,120.15,228.09,118.71,228.09,115.18z M234.34,115.18c0-2.27-0.08-3.85-2.43-3.85c-2.35,0-2.43,1.58-2.43,3.85
		c0,2.26,0.07,3.85,2.43,3.85C234.25,119.03,234.34,117.44,234.34,115.18z"/>
	<path class="st0" d="M239.29,120.05h-1.36v-9.61c0.83-0.14,1.95-0.24,3.04-0.24c2.11,0,3.83,0.42,3.83,2.98
		c0,2.5-1.54,3.05-3.72,3.05c-0.51,0-1.33-0.03-1.79-0.06V120.05z M239.29,115.07c0.64,0.07,1.15,0.08,1.68,0.08
		c1.59,0,2.48-0.39,2.48-1.97c0-1.36-0.63-1.9-2.43-1.9c-0.51,0-1.13,0.03-1.73,0.11V115.07z"/>
	<path class="st0" d="M252.4,111.39h-2.52c-1.59,0-1.86,0.3-1.86,1.7v1.46h4.19v1.08h-4.19v1.64c0,1.4,0.27,1.7,1.86,1.7h2.52v1.05
		c-0.74,0.03-1.76,0.06-2.48,0.06c-1.69,0-3.26-0.09-3.26-2.22v-5.35c0-2.13,1.57-2.23,3.26-2.23c0.65,0,1.72,0.03,2.48,0.06V111.39
		z"/>
	<path class="st0" d="M254.42,120.05v-9.61c0.84-0.14,1.96-0.24,3.04-0.24c2.1,0,3.83,0.4,3.83,2.95c0,1.85-0.87,2.61-2.22,2.88
		l2.34,4.03h-1.59l-2.17-3.9h-0.07c-0.51,0-1.32-0.04-1.79-0.06v3.96H254.42z M255.78,114.99c0.64,0.07,1.15,0.08,1.67,0.08
		c1.57,0,2.48-0.39,2.48-1.92c0-1.35-0.64-1.87-2.43-1.87c-0.51,0-1.13,0.04-1.72,0.12V114.99z"/>
	<path class="st0" d="M262.97,120.05l3.18-8.92c0.23-0.64,0.61-0.93,1.14-0.93c0.52,0,0.91,0.3,1.13,0.93l3.13,8.92h-1.45l-0.92-2.7
		h-3.9l-0.91,2.7H262.97z M268.83,116.29l-1.6-4.7l-1.59,4.7H268.83z"/>
	<path class="st0" d="M277.79,111.4h-2.58v8.65h-1.37v-8.65h-2.58v-1.1h6.53V111.4z"/>
	<path class="st0" d="M279.55,110.3h1.37v9.75h-1.37V110.3z"/>
	<path class="st0" d="M287.82,119.22c-0.23,0.66-0.56,0.94-1.07,0.94s-0.84-0.27-1.07-0.94l-3.01-8.91h1.45l2.65,8.23l2.68-8.23
		h1.39L287.82,119.22z"/>
	<path class="st0" d="M290.44,120.05l3.18-8.92c0.23-0.64,0.61-0.93,1.14-0.93c0.52,0,0.91,0.3,1.13,0.93l3.13,8.92h-1.45l-0.92-2.7
		h-3.9l-0.91,2.7H290.44z M296.3,116.29l-1.6-4.7l-1.59,4.7H296.3z"/>
	<path class="st0" d="M301.59,112.68c0,1.23,0.66,1.41,2.1,1.81c1.67,0.46,2.69,1.12,2.69,2.87c0,2.05-1.26,2.8-3.51,2.8
		c-1.05,0-1.82-0.09-2.6-0.25l0.13-1.1c0.75,0.11,1.69,0.19,2.42,0.19c1.26,0,2.14-0.28,2.14-1.6c0-1.15-0.85-1.42-1.99-1.77
		c-1.74-0.52-2.76-1-2.76-2.78c0-2.01,1.21-2.66,3.38-2.66c0.93,0,1.88,0.11,2.57,0.25l-0.13,1.07c-0.6-0.09-1.32-0.18-2.01-0.18
		C302.91,111.34,301.59,111.45,301.59,112.68z"/>
</g>
<g>
	<path class="st0" d="M129.58,96.01l14.23-41.66c1.6-4.68,4.19-6.67,7.87-6.67c3.57,0,6.26,2.12,7.8,6.67l13.98,41.66h-10.31
		l-3.65-11.85h-16.32l-3.57,11.85H129.58z M157.22,76.71l-5.95-19.34l-5.85,19.34H157.22z"/>
	<path class="st0" d="M178.96,48.17h9.73v47.85h-9.73V48.17z"/>
	<path class="st0" d="M227.08,95.81c-3.39,0.14-9.24,0.33-12.24,0.33c-8.64,0-16.61-0.47-16.61-11.68V48.17h9.73v33.57
		c0,5.32,0.96,6.51,6.69,6.51h12.42V95.81z"/>
	<path class="st0" d="M231.38,72.09c0-17.33,4.25-24.42,19.14-24.42c14.87,0,19.12,7.09,19.12,24.42c0,17.33-4.25,24.42-19.12,24.42
		C235.63,96.51,231.38,89.42,231.38,72.09z M259.78,72.09c0-9.75-0.21-16.43-9.26-16.43c-9.08,0-9.28,6.67-9.28,16.43
		c0,9.75,0.21,16.41,9.28,16.41C259.57,88.5,259.78,81.84,259.78,72.09z"/>
	<path class="st0" d="M285.75,60.53c0,4.81,3.28,5.46,8.79,6.94c9.16,2.48,13.1,6.02,13.1,14.68c0,10.56-6.43,14.35-17.76,14.35
		c-5.38,0-9.92-0.64-13.82-1.48l0.94-7.66c3.51,0.51,8.85,1.07,12.53,1.07c5.03,0,8.11-1.13,8.11-5.93c0-4.46-3.51-5.46-7.95-6.82
		c-8.58-2.63-13.63-5.28-13.63-14.31c0-10.37,6.12-13.7,17.13-13.7c5.07,0,10.29,0.76,13.7,1.5l-0.88,7.45
		c-3.1-0.49-6.96-1.05-10.53-1.05C291.6,55.58,285.75,55.75,285.75,60.53z"/>
</g>
<g>
	<g>
		<path class="st0" d="M95.79,77.8l-9.25-22.65c-0.91-2.1-1.59-3.6-2.98-3.6c-1.41,0.01-2.07,1.59-2.91,3.59l-5.63,13.07
			l-5.56-13.06c-0.84-2.01-1.51-3.59-2.91-3.6c-1.38,0.01-2.06,1.5-2.99,3.63l-9.24,22.64c-0.62,1.59-0.51,3.19,0.31,4.38
			c0.82,1.2,2.27,1.89,3.97,1.89h4.07l0.02,5.16c0,1.85,1.51,3.36,3.36,3.36h1.17c1.85,0,3.36-1.51,3.36-3.36v-2.53
			c0-0.09,0-0.18-0.01-0.27v-2.36h4.09c0.14,0,0.27-0.01,0.4-0.02c0.13,0.01,0.25,0.02,0.39,0.02h4.09v2.36
			c-0.01,0.09-0.01,0.18-0.01,0.27v2.53c0,1.85,1.51,3.36,3.36,3.36h1.17c1.85,0,3.36-1.51,3.36-3.36l0.02-5.16h4.07
			c1.71,0,3.15-0.69,3.97-1.89C96.3,81.01,96.42,79.41,95.79,77.8z M71.15,81.59h-3.08l0.01,7.67c0,0.47-0.38,0.85-0.85,0.85h-1.17
			c-0.47,0-0.85-0.38-0.85-0.85l-0.02-3.06v-4.6h-6.58c-0.88,0-1.55-0.28-1.9-0.79c-0.35-0.51-0.37-1.24-0.05-2.04l9.22-22.6
			c0.12-0.28,0.4-0.91,0.66-1.43c0.17,0.36,0.38,0.83,0.62,1.41l6.51,15.3l-2.49,6.4C70.66,79.16,70.65,80.48,71.15,81.59z
			 M76.6,80.74c-0.28,0.45-0.83,0.73-1.53,0.81c-0.71-0.08-1.25-0.36-1.54-0.81c-0.32-0.51-0.32-1.22-0.02-2.01l1.53-3.92l1.57,3.92
			C76.92,79.53,76.92,80.24,76.6,80.74z M93.41,80.79c-0.35,0.51-1.03,0.79-1.9,0.79h-6.58l-0.02,7.67c0,0.47-0.38,0.85-0.85,0.85
			H82.9c-0.47,0-0.85-0.38-0.85-0.85l0.01-7.67h-3.07c0.5-1.11,0.49-2.42-0.04-3.76l-2.57-6.4l6.59-15.3
			c0.24-0.58,0.45-1.04,0.62-1.4c0.26,0.52,0.53,1.14,0.64,1.41l9.23,22.61C93.78,79.55,93.76,80.28,93.41,80.79z"/>
	</g>
	<g>
		<linearGradient id="SVGID_1_" gradientUnits="userSpaceOnUse" x1="49.2109" y1="98.502" x2="117.207" y2="98.502">
			<stop  offset="0" style="stop-color:#00A9CE"/>
			<stop  offset="0.411" style="stop-color:#00A7CB"/>
			<stop  offset="0.6581" style="stop-color:#009FC3"/>
			<stop  offset="0.8612" style="stop-color:#0091B5"/>
			<stop  offset="1" style="stop-color:#0083A6"/>
		</linearGradient>
		<path class="st1" d="M100.75,95.06c-6.41,6.89-15.55,11.19-25.7,11.19c-1.07,0-2.13-0.05-3.18-0.15
			c-3.12,0.83-6.39,1.27-9.77,1.27c-4.52,0-8.86-0.79-12.88-2.25c6.93,9.01,17.82,14.81,30.07,14.81
			c20.95,0,37.92-16.97,37.92-37.91c0-1.69-0.11-3.36-0.33-4.99C113.6,84.67,107.9,90.99,100.75,95.06z"/>
		
			<linearGradient id="SVGID_00000018196902737975277630000003945124359215411625_" gradientUnits="userSpaceOnUse" x1="59.4039" y1="50.6103" x2="119.9526" y2="50.6103">
			<stop  offset="0" style="stop-color:#FFA300"/>
			<stop  offset="0.3498" style="stop-color:#FCA200"/>
			<stop  offset="0.5601" style="stop-color:#F49D00"/>
			<stop  offset="0.7336" style="stop-color:#E69600"/>
			<stop  offset="0.8861" style="stop-color:#D28B00"/>
			<stop  offset="1" style="stop-color:#BD8000"/>
		</linearGradient>
		<path style="fill:url(#SVGID_00000018196902737975277630000003945124359215411625_);" d="M80.96,36.57
			c11.28,1.91,20.72,9.2,25.61,19.13c5.5,5.69,9.23,13.1,10.32,21.35c1.98-4.59,3.07-9.65,3.07-14.97
			c0-20.94-16.98-37.91-37.92-37.91c-8.48,0-16.31,2.78-22.62,7.48c0.89-0.06,1.79-0.1,2.69-0.1C68.96,31.56,75.4,33.38,80.96,36.57
			z"/>
		<path class="st3" d="M110.15,71.17c0,9.23-3.57,17.63-9.4,23.9c7.16-4.07,12.86-10.39,16.13-18.01
			c-1.08-8.24-4.82-15.65-10.32-21.35C108.86,60.37,110.15,65.62,110.15,71.17z"/>
		
			<linearGradient id="SVGID_00000013890777353514864250000017316443315622300553_" gradientUnits="userSpaceOnUse" x1="24.1693" y1="68.3957" x2="59.4039" y2="68.3957">
			<stop  offset="0" style="stop-color:#00B140"/>
			<stop  offset="0.3902" style="stop-color:#00AE40"/>
			<stop  offset="0.6248" style="stop-color:#01A63E"/>
			<stop  offset="0.8176" style="stop-color:#02983B"/>
			<stop  offset="0.9878" style="stop-color:#038437"/>
			<stop  offset="1" style="stop-color:#038237"/>
		</linearGradient>
		<path style="fill:url(#SVGID_00000013890777353514864250000017316443315622300553_);" d="M41.37,81.09
			c-0.93-3.15-1.43-6.48-1.43-9.93c0-6.87,1.98-13.28,5.39-18.69c2.21-8.45,7.26-15.75,14.07-20.82
			c-19.69,1.38-35.23,17.78-35.23,37.82c0,16.42,10.44,30.4,25.04,35.67c-4.92-6.4-7.85-14.4-7.85-23.1
			C41.36,81.72,41.36,81.41,41.37,81.09z"/>
		<path class="st5" d="M71.86,106.11c-14.52-1.31-26.5-11.45-30.49-25.02c-0.01,0.31-0.01,0.63-0.01,0.95
			c0,8.69,2.93,16.7,7.85,23.1c4.02,1.45,8.36,2.25,12.88,2.25C65.47,107.38,68.75,106.94,71.86,106.11z"/>
		<path class="st6" d="M45.33,52.47c6.22-9.85,17.2-16.4,29.71-16.4c2.01,0,3.99,0.17,5.91,0.5c-5.56-3.19-12-5.01-18.86-5.01
			c-0.9,0-1.8,0.03-2.69,0.1C52.59,36.72,47.54,44.02,45.33,52.47z"/>
	</g>
</g>
</svg>
