<?xml version="1.0" encoding="utf-8"?>
<!-- Generator: Adobe Illustrator 26.0.3, SVG Export Plug-In . SVG Version: 6.00 Build 0)  -->
<svg version="1.1" id="Camada_1" xmlns="http://www.w3.org/2000/svg" xmlns:xlink="http://www.w3.org/1999/xlink" x="0px" y="0px"
	 viewBox="0 0 1000 1000" style="enable-background:new 0 0 1000 1000;" xml:space="preserve">
<style type="text/css">
	.st0{fill:#FFFFFF;}
	.st1{fill:url(#SVGID_1_);}
	.st2{fill:url(#SVGID_00000006674031883425751270000009686569718545011107_);}
	.st3{fill:#886B25;}
	.st4{fill:url(#SVGID_00000127043649991501683950000010221779756246168725_);}
	.st5{fill:#007D8A;}
	.st6{fill:#007041;}
</style>
<path class="st0" d="M735.5,556.1l-92.7-226.9c-9.1-20.9-15.9-36.1-30-36.1s-20.7,16-29.2,36l-56.4,130.9l-55.4-130.8
	c-8.4-20-15-36-29.1-36.1s-20.6,15.1-30,36.4l-92.5,226.8c-10.7,21.6-1.8,47.8,19.9,58.5c7.2,3.5,15.1,5,23.1,4.3h40.8v51.7
	c0,18.6,15.1,33.6,33.7,33.7h11.7c18.6-0.1,33.6-15.1,33.7-33.7v-25.2c0-0.9,0-1.8,0-2.7v-23.7h90.2v23.7c0,0.9,0,1.8,0,2.7v25.2
	c0,18.6,15.1,33.6,33.7,33.7h11.7c18.6,0,33.6-15.1,33.7-33.7v-51.7h40.8c24,2.1,45.2-15.7,47.3-39.7c0.7-8-0.8-16.1-4.4-23.3
	L735.5,556.1z M488.6,594.1h-30.9v76.7c0,4.7-3.8,8.5-8.5,8.5h-11.6c-4.7,0-8.5-3.8-8.5-8.5v-30.7v-46.1h-66
	c-10.2,2.2-20.3-4.4-22.4-14.6c-1-4.8-0.1-9.7,2.4-13.8l92.4-226.4c1.3-2.8,4-9,6.6-14.3c1.7,3.6,3.8,8.3,6.2,14.1l65.2,153.2
	l-24.9,64.1C483.5,568.4,483.5,582,488.6,594.1z M543.2,585.6c-3.6,4.9-9.2,7.9-15.3,8.1c-6.1-0.2-11.8-3.2-15.4-8.1
	c-3.2-6.3-3.2-13.7,0-20l14.7-39.3l15.7,39.3C546.2,571.8,546.3,579.2,543.2,585.6z M711.6,586.1c-4.6,5.7-11.8,8.7-19,8h-65.9v76.7
	c0,4.7-3.8,8.5-8.5,8.5h-11.8c-4.7,0-8.5-3.8-8.5-8.5v-76.7h-30.5c5.1-12.1,5.1-25.7,0-37.8l-25.7-64.1l65.8-153.3
	c2.4-5.7,4.5-10,6.2-14c2.6,5.2,5.2,11.4,6.4,14.1l92.5,226.4C715.6,572,715.3,579.8,711.6,586.1z"/>
<linearGradient id="SVGID_1_" gradientUnits="userSpaceOnUse" x1="292.62" y1="785.3245" x2="973.81" y2="785.3245" gradientTransform="matrix(1 0 0 1 -24.17 -22.17)">
	<stop  offset="0" style="stop-color:#00A9CE"/>
	<stop  offset="0.41" style="stop-color:#00A7CB"/>
	<stop  offset="0.66" style="stop-color:#009FC3"/>
	<stop  offset="0.86" style="stop-color:#0091B5"/>
	<stop  offset="1" style="stop-color:#0083A6"/>
</linearGradient>
<path class="st1" d="M785.2,729c-66.5,71.8-160.1,112.4-258,112.2c-10.8,0-21.4-0.5-31.9-1.5c-74.9,19.7-154,16.2-226.9-10
	c127.9,166.4,366.5,197.5,532.8,69.6c93.5-71.9,148.3-183.1,148.4-301c0-16.8-1.1-33.5-3.3-50.1C913.7,624.4,857.1,687.9,785.2,729z
	"/>
<linearGradient id="SVGID_00000152953777510656176130000005640153739646374539_" gradientUnits="userSpaceOnUse" x1="395.1" y1="305.6673" x2="1001.6591" y2="305.6673" gradientTransform="matrix(1 0 0 1 -24.17 -22.17)">
	<stop  offset="0" style="stop-color:#FFA300"/>
	<stop  offset="0.35" style="stop-color:#FCA200"/>
	<stop  offset="0.56" style="stop-color:#F49D00"/>
	<stop  offset="0.73" style="stop-color:#E69600"/>
	<stop  offset="0.89" style="stop-color:#D28B00"/>
	<stop  offset="1" style="stop-color:#BD8000"/>
</linearGradient>
<path style="fill:url(#SVGID_00000152953777510656176130000005640153739646374539_);" d="M587.3,143.1
	c111.3,19.1,206.6,90.3,256.5,191.6c56.5,58.4,92.8,133.3,103.4,213.9c83-192.7-6-416.3-198.7-499.2
	C623.7-4.3,479.8,12.6,370.9,93.8c8.9-0.6,17.9-0.9,27-0.9C464.3,92.7,529.7,110,587.3,143.1z"/>
<path class="st3" d="M879.3,489.7c0.1,88.8-33.5,174.4-94.2,239.3c72-41,128.7-104.3,161.6-180.3c-10.6-80.6-46.9-155.6-103.4-214
	C867.1,383,879.4,436,879.3,489.7z"/>
<linearGradient id="SVGID_00000038383558393564080590000002799929305675739041_" gradientUnits="userSpaceOnUse" x1="42.1672" y1="484.08" x2="395.11" y2="484.08" gradientTransform="matrix(1 0 0 1 -24.17 -22.17)">
	<stop  offset="0" style="stop-color:#00B140"/>
	<stop  offset="0.39" style="stop-color:#00AE40"/>
	<stop  offset="0.62" style="stop-color:#01A63E"/>
	<stop  offset="0.82" style="stop-color:#02983B"/>
	<stop  offset="0.99" style="stop-color:#038437"/>
	<stop  offset="1" style="stop-color:#038237"/>
</linearGradient>
<path style="fill:url(#SVGID_00000038383558393564080590000002799929305675739041_);" d="M190.3,589.1
	c-28.4-96.9-13.8-201.3,40.1-286.7c21.9-83.4,71.4-157,140.5-208.6C161.7,108.7,4.1,290.4,19,499.7C29.6,649.5,127.6,779,268.9,830
	c-51.2-66.4-78.8-148-78.6-231.8C190.2,595.4,190.2,592.3,190.3,589.1z"/>
<path class="st5" d="M495.8,839.7c-143.5-13.1-264.5-112.3-305.4-250.4c0,3.2,0,6.3,0,10c-0.1,83.7,27.6,165.1,78.6,231.4
	c72.9,26.2,152,29.7,226.9,10L495.8,839.7z"/>
<path class="st6" d="M230,302.4c64.3-102.2,176.5-164.2,297.2-164.3c19.9,0,39.7,1.7,59.3,5c-57.5-33-122.7-50.2-189-50.1
	c-9,0-18,0-27,0.9C301.4,145.5,251.9,219,230,302.4z"/>
</svg>
