<svg id="Layer_1" data-name="Layer 1" xmlns="http://www.w3.org/2000/svg" xmlns:xlink="http://www.w3.org/1999/xlink" viewBox="0 0 283.46 95.98"><defs><style>.cls-1{fill:#165c7d;}.cls-2{fill:url(#linear-gradient);}.cls-3{fill:url(#linear-gradient-2);}.cls-4{fill:#886b25;}.cls-5{fill:url(#linear-gradient-3);}.cls-6{fill:#007d8a;}.cls-7{fill:#007041;}</style><linearGradient id="linear-gradient" x1="49.21" y1="98.5" x2="117.21" y2="98.5" gradientUnits="userSpaceOnUse"><stop offset="0" stop-color="#00a9ce"/><stop offset="0.41" stop-color="#00a7cb"/><stop offset="0.66" stop-color="#009fc3"/><stop offset="0.86" stop-color="#0091b5"/><stop offset="1" stop-color="#0083a6"/></linearGradient><linearGradient id="linear-gradient-2" x1="59.4" y1="50.61" x2="119.95" y2="50.61" gradientUnits="userSpaceOnUse"><stop offset="0" stop-color="#ffa300"/><stop offset="0.35" stop-color="#fca200"/><stop offset="0.56" stop-color="#f49d00"/><stop offset="0.73" stop-color="#e69600"/><stop offset="0.89" stop-color="#d28b00"/><stop offset="1" stop-color="#bd8000"/></linearGradient><linearGradient id="linear-gradient-3" x1="24.17" y1="68.4" x2="59.4" y2="68.4" gradientUnits="userSpaceOnUse"><stop offset="0" stop-color="#00b140"/><stop offset="0.39" stop-color="#00ae40"/><stop offset="0.62" stop-color="#01a63e"/><stop offset="0.82" stop-color="#02983b"/><stop offset="0.99" stop-color="#038437"/><stop offset="1" stop-color="#038237"/></linearGradient></defs><path class="cls-1" d="M130.83,112.68c0,1.22.66,1.4,2.1,1.81,1.67.46,2.69,1.11,2.69,2.86,0,2.05-1.26,2.8-3.51,2.8a12.26,12.26,0,0,1-2.6-.25l.13-1.09a20.36,20.36,0,0,0,2.43.19c1.26,0,2.14-.28,2.14-1.6,0-1.15-.85-1.42-2-1.76-1.74-.53-2.76-1-2.76-2.78,0-2,1.21-2.66,3.38-2.66a13.84,13.84,0,0,1,2.58.25l-.13,1.07a13.89,13.89,0,0,0-2-.18C132.14,111.34,130.83,111.45,130.83,112.68Z" transform="translate(-24.17 -24.17)"/><path class="cls-1" d="M137.56,110.3h1.36v9.75h-1.36Z" transform="translate(-24.17 -24.17)"/><path class="cls-1" d="M142.21,112.68c0,1.22.66,1.4,2.11,1.81,1.67.46,2.68,1.11,2.68,2.86,0,2.05-1.26,2.8-3.51,2.8a12.26,12.26,0,0,1-2.6-.25l.14-1.09a20,20,0,0,0,2.42.19c1.26,0,2.14-.28,2.14-1.6,0-1.15-.85-1.42-2-1.76-1.74-.53-2.75-1-2.75-2.78,0-2,1.21-2.66,3.37-2.66a13.84,13.84,0,0,1,2.58.25l-.13,1.07a13.89,13.89,0,0,0-2-.18C143.52,111.34,142.21,111.45,142.21,112.68Z" transform="translate(-24.17 -24.17)"/><path class="cls-1" d="M154.94,111.4h-2.57v8.65H151V111.4h-2.59v-1.1h6.53Z" transform="translate(-24.17 -24.17)"/><path class="cls-1" d="M162.35,111.39h-2.52c-1.6,0-1.86.3-1.86,1.7v1.46h4.19v1.08H158v1.64c0,1.4.26,1.7,1.86,1.7h2.52v1c-.75,0-1.76.06-2.48.06-1.69,0-3.26-.09-3.26-2.22V112.5c0-2.13,1.57-2.22,3.26-2.22.65,0,1.72,0,2.48.06Z" transform="translate(-24.17 -24.17)"/><path class="cls-1" d="M169.21,117l2.59-6c.25-.57.62-.86,1-.86.58,0,.86.3.89,1l.46,8.88h-1.33l-.39-7.85L170,118.12a.8.8,0,0,1-1.56,0l-2.48-5.9-.4,7.83h-1.28l.48-8.89c0-.67.31-1,.89-1,.4,0,.76.26,1,.85Z" transform="translate(-24.17 -24.17)"/><path class="cls-1" d="M175.9,120.05l3.18-8.92a1.16,1.16,0,0,1,2.27,0l3.13,8.92H183l-.92-2.7h-3.91l-.91,2.7Zm5.86-3.76-1.6-4.7-1.59,4.7Z" transform="translate(-24.17 -24.17)"/><path class="cls-1" d="M190,110.44a19.29,19.29,0,0,1,3-.24c3.62,0,4.25,1.66,4.25,5s-.63,5-4.25,5a19.29,19.29,0,0,1-3-.24Zm1.36,1v7.51a10,10,0,0,0,1.39.11c3.14,0,3.16-1.67,3.16-3.86s0-3.86-3.16-3.86A12,12,0,0,0,191.35,111.42Z" transform="translate(-24.17 -24.17)"/><path class="cls-1" d="M205.17,111.39h-2.52c-1.59,0-1.86.3-1.86,1.7v1.46H205v1.08h-4.19v1.64c0,1.4.27,1.7,1.86,1.7h2.52v1c-.74,0-1.76.06-2.47.06-1.69,0-3.27-.09-3.27-2.22V112.5c0-2.13,1.58-2.22,3.27-2.22.65,0,1.72,0,2.47.06Z" transform="translate(-24.17 -24.17)"/><path class="cls-1" d="M217.14,119.91a10.74,10.74,0,0,1-2.32.24c-3.18,0-4-1.51-4-5s.78-5,4-5a10.74,10.74,0,0,1,2.32.24L217,111.5a11.83,11.83,0,0,0-1.81-.16c-2.81,0-3,1.48-3,3.84s.17,3.83,3,3.83a11.84,11.84,0,0,0,1.81-.15Z" transform="translate(-24.17 -24.17)"/><path class="cls-1" d="M218.5,115.18c0-3.53.85-5,3.82-5s3.81,1.45,3.81,5-.84,5-3.81,5S218.5,118.71,218.5,115.18Zm6.25,0c0-2.27-.09-3.85-2.43-3.85s-2.43,1.58-2.43,3.85S220,119,222.32,119,224.75,117.44,224.75,115.18Z" transform="translate(-24.17 -24.17)"/><path class="cls-1" d="M228.09,115.18c0-3.53.85-5,3.82-5s3.81,1.45,3.81,5-.84,5-3.81,5S228.09,118.71,228.09,115.18Zm6.25,0c0-2.27-.09-3.85-2.43-3.85s-2.43,1.58-2.43,3.85.08,3.85,2.43,3.85S234.34,117.44,234.34,115.18Z" transform="translate(-24.17 -24.17)"/><path class="cls-1" d="M239.29,120.05h-1.36v-9.6a18.22,18.22,0,0,1,3-.25c2.11,0,3.83.43,3.83,3s-1.53,3-3.72,3c-.51,0-1.32,0-1.79-.06Zm0-5a12.68,12.68,0,0,0,1.68.08c1.59,0,2.48-.39,2.48-2,0-1.35-.63-1.9-2.43-1.9a12,12,0,0,0-1.73.12Z" transform="translate(-24.17 -24.17)"/><path class="cls-1" d="M252.4,111.39h-2.52c-1.59,0-1.86.3-1.86,1.7v1.46h4.19v1.08H248v1.64c0,1.4.27,1.7,1.86,1.7h2.52v1c-.74,0-1.76.06-2.48.06-1.69,0-3.26-.09-3.26-2.22V112.5c0-2.13,1.57-2.22,3.26-2.22.65,0,1.72,0,2.48.06Z" transform="translate(-24.17 -24.17)"/><path class="cls-1" d="M254.42,120.05v-9.6a18.18,18.18,0,0,1,3-.25c2.1,0,3.84.4,3.84,3a2.55,2.55,0,0,1-2.22,2.88l2.33,4h-1.59l-2.17-3.9h-.07c-.52,0-1.32,0-1.79-.06v4Zm1.36-5.06a14.32,14.32,0,0,0,1.67.07c1.57,0,2.48-.38,2.48-1.92,0-1.34-.64-1.87-2.43-1.87a13.59,13.59,0,0,0-1.72.12Z" transform="translate(-24.17 -24.17)"/><path class="cls-1" d="M263,120.05l3.18-8.92a1.16,1.16,0,0,1,2.27,0l3.14,8.92h-1.45l-.92-2.7h-3.9l-.92,2.7Zm5.86-3.76-1.6-4.7-1.59,4.7Z" transform="translate(-24.17 -24.17)"/><path class="cls-1" d="M277.79,111.4h-2.57v8.65h-1.37V111.4h-2.58v-1.1h6.52Z" transform="translate(-24.17 -24.17)"/><path class="cls-1" d="M279.55,110.3h1.37v9.75h-1.37Z" transform="translate(-24.17 -24.17)"/><path class="cls-1" d="M287.82,119.22c-.23.66-.56.93-1.07.93s-.84-.27-1.07-.93l-3-8.92h1.45l2.65,8.23,2.67-8.23h1.39Z" transform="translate(-24.17 -24.17)"/><path class="cls-1" d="M290.44,120.05l3.18-8.92a1.16,1.16,0,0,1,2.27,0l3.14,8.92h-1.45l-.92-2.7h-3.91l-.91,2.7Zm5.86-3.76-1.6-4.7-1.59,4.7Z" transform="translate(-24.17 -24.17)"/><path class="cls-1" d="M301.59,112.68c0,1.22.67,1.4,2.11,1.81,1.67.46,2.69,1.11,2.69,2.86,0,2.05-1.26,2.8-3.52,2.8a12.16,12.16,0,0,1-2.59-.25l.13-1.09a20,20,0,0,0,2.42.19c1.26,0,2.15-.28,2.15-1.6,0-1.15-.86-1.42-2-1.76-1.74-.53-2.76-1-2.76-2.78,0-2,1.21-2.66,3.38-2.66a13.73,13.73,0,0,1,2.57.25l-.12,1.07a14.17,14.17,0,0,0-2-.18C302.91,111.34,301.59,111.45,301.59,112.68Z" transform="translate(-24.17 -24.17)"/><path class="cls-1" d="M129.58,96l14.23-41.66c1.61-4.68,4.19-6.67,7.87-6.67s6.26,2.11,7.8,6.67l14,41.66h-10.3L159.5,84.16H143.18L139.6,96Zm27.64-19.3-5.95-19.34-5.85,19.34Z" transform="translate(-24.17 -24.17)"/><path class="cls-1" d="M179,48.17h9.73V96H179Z" transform="translate(-24.17 -24.17)"/><path class="cls-1" d="M227.08,95.81c-3.39.14-9.24.33-12.24.33-8.64,0-16.61-.48-16.61-11.69V48.17H208V81.74c0,5.32,1,6.51,6.7,6.51h12.42Z" transform="translate(-24.17 -24.17)"/><path class="cls-1" d="M231.38,72.09c0-17.33,4.25-24.41,19.14-24.41s19.12,7.08,19.12,24.41-4.25,24.42-19.12,24.42S231.38,89.42,231.38,72.09Zm28.4,0c0-9.75-.21-16.43-9.26-16.43s-9.28,6.68-9.28,16.43.2,16.41,9.28,16.41S259.78,81.84,259.78,72.09Z" transform="translate(-24.17 -24.17)"/><path class="cls-1" d="M285.75,60.53c0,4.81,3.28,5.46,8.78,6.94,9.16,2.49,13.1,6,13.1,14.68,0,10.56-6.42,14.36-17.76,14.36A64.69,64.69,0,0,1,276.05,95l.95-7.66a101,101,0,0,0,12.52,1.07c5,0,8.11-1.13,8.11-5.94,0-4.45-3.51-5.46-7.94-6.82-8.59-2.62-13.64-5.27-13.64-14.31,0-10.37,6.12-13.69,17.13-13.69a69.39,69.39,0,0,1,13.69,1.49L306,56.63a69.91,69.91,0,0,0-10.53-1.05C291.6,55.58,285.75,55.75,285.75,60.53Z" transform="translate(-24.17 -24.17)"/><path class="cls-1" d="M95.79,77.8,86.54,55.15c-.91-2.09-1.59-3.6-3-3.6s-2.07,1.6-2.91,3.59L75,68.21,69.47,55.15c-.84-2-1.5-3.59-2.91-3.6s-2.06,1.51-3,3.63L54.33,77.82a4.36,4.36,0,0,0,4.29,6.27h4.07v5.16a3.37,3.37,0,0,0,3.36,3.36h1.17a3.37,3.37,0,0,0,3.36-3.36V86.73c0-.09,0-.18,0-.27V84.09h9v2.37a2.44,2.44,0,0,0,0,.27v2.52a3.37,3.37,0,0,0,3.36,3.36h1.17a3.37,3.37,0,0,0,3.36-3.36V84.09h4.07a4.36,4.36,0,0,0,4.28-6.29ZM71.15,81.59H68.07v7.66a.85.85,0,0,1-.85.85H66.06a.85.85,0,0,1-.85-.85l0-3.06v-4.6H58.62a1.89,1.89,0,0,1-2-2.84l9.22-22.6c.13-.28.4-.9.66-1.43.17.36.38.83.62,1.41l6.51,15.29-2.49,6.4A4.83,4.83,0,0,0,71.15,81.59Zm5.45-.85a2,2,0,0,1-1.53.81,2,2,0,0,1-1.54-.81,2.23,2.23,0,0,1,0-2L75,74.82l1.57,3.92A2.21,2.21,0,0,1,76.6,80.74Zm16.81.05a2.2,2.2,0,0,1-1.9.8H84.93v7.66a.85.85,0,0,1-.85.85H82.9a.85.85,0,0,1-.85-.85V81.59H79a4.88,4.88,0,0,0,0-3.77l-2.57-6.4L83,56.12c.24-.57.45-1,.62-1.4.26.52.52,1.14.64,1.41l9.23,22.6A2.2,2.2,0,0,1,93.41,80.79Z" transform="translate(-24.17 -24.17)"/><path class="cls-2" d="M100.75,95.06A35,35,0,0,1,75,106.26q-1.61,0-3.18-.15a38.18,38.18,0,0,1-22.65-1,37.93,37.93,0,0,0,68-23.1,39.08,39.08,0,0,0-.33-5A38.09,38.09,0,0,1,100.75,95.06Z" transform="translate(-24.17 -24.17)"/><path class="cls-3" d="M81,36.57a35.14,35.14,0,0,1,25.6,19.13,37.81,37.81,0,0,1,10.32,21.35A37.93,37.93,0,0,0,59.4,31.65c.89-.06,1.79-.09,2.69-.09A37.79,37.79,0,0,1,81,36.57Z" transform="translate(-24.17 -24.17)"/><path class="cls-4" d="M110.15,71.17a34.94,34.94,0,0,1-9.4,23.89,38.09,38.09,0,0,0,16.13-18A37.81,37.81,0,0,0,106.56,55.7,34.91,34.91,0,0,1,110.15,71.17Z" transform="translate(-24.17 -24.17)"/><path class="cls-5" d="M41.37,81.09a35.13,35.13,0,0,1,4-28.62A38,38,0,0,1,59.4,31.65a37.92,37.92,0,0,0-10.19,73.49A37.78,37.78,0,0,1,41.36,82C41.36,81.72,41.36,81.41,41.37,81.09Z" transform="translate(-24.17 -24.17)"/><path class="cls-6" d="M71.86,106.11a35.12,35.12,0,0,1-30.49-25c0,.32,0,.63,0,1a37.78,37.78,0,0,0,7.85,23.1,38.18,38.18,0,0,0,22.65,1Z" transform="translate(-24.17 -24.17)"/><path class="cls-7" d="M45.33,52.47A35.09,35.09,0,0,1,75,36.07a36.1,36.1,0,0,1,5.92.5,37.79,37.79,0,0,0-18.87-5c-.9,0-1.8,0-2.69.09A38,38,0,0,0,45.33,52.47Z" transform="translate(-24.17 -24.17)"/></svg>